<?xml version="1.0" standalone="no"?>
<!DOCTYPE svg PUBLIC "-//W3C//DTD SVG 20010904//EN"
 "http://www.w3.org/TR/2001/REC-SVG-20010904/DTD/svg10.dtd">
<svg version="1.0" xmlns="http://www.w3.org/2000/svg"
 width="512.000000pt" height="512.000000pt" viewBox="0 0 512.000000 512.000000"
 preserveAspectRatio="xMidYMid meet">

<g transform="translate(0.000000,512.000000) scale(0.100000,-0.100000)"
fill="#000000" stroke="none">
<path d="M1575 4479 c-228 -25 -411 -116 -505 -250 -79 -113 -84 -138 -88
-436 -4 -292 2 -337 59 -448 31 -61 104 -153 114 -144 3 3 0 32 -6 65 -6 33
-9 108 -6 169 4 89 11 129 38 209 18 57 44 113 59 129 l26 30 324 29 c320 30
323 30 349 10 14 -10 30 -36 36 -56 l9 -38 51 7 c77 10 422 74 497 92 62 15
69 15 92 -1 32 -20 86 -125 117 -226 19 -62 23 -98 24 -210 0 -74 -3 -154 -8
-178 -7 -41 -6 -42 12 -32 32 17 112 136 140 209 24 64 25 75 29 333 4 292 -1
338 -47 434 -51 108 -150 173 -286 189 -33 4 -114 19 -180 35 -321 77 -618
104 -850 79z"/>
<path d="M2030 2791 c-49 -15 -89 -41 -123 -81 -58 -68 -61 -95 -47 -395 7
-146 11 -268 9 -270 -3 -2 -52 71 -109 163 -66 105 -114 171 -130 179 -22 10
-52 5 -205 -33 -192 -48 -218 -62 -218 -112 0 -19 66 -149 193 -378 106 -192
202 -362 213 -377 37 -54 59 -54 175 3 57 27 105 50 107 50 1 0 5 -37 7 -82 5
-98 28 -149 88 -200 22 -19 57 -40 79 -46 28 -9 323 -12 1100 -12 l1062 0 55
26 c57 27 93 65 119 128 24 56 73 1209 55 1276 -16 62 -99 142 -162 158 -54
14 -2224 16 -2268 3z m1192 -601 c81 -23 138 -102 138 -190 0 -167 -193 -260
-320 -153 -115 96 -83 289 57 338 46 17 76 18 125 5z"/>
<path d="M680 2448 c-81 -23 -140 -94 -140 -170 0 -37 105 -473 175 -723 7
-27 18 -69 25 -92 l11 -42 44 33 c67 51 132 69 229 64 44 -3 88 -8 97 -12 12
-5 -9 89 -91 404 -59 225 -113 424 -120 440 -17 41 -71 87 -117 99 -45 13 -66
13 -113 -1z"/>
<path d="M340 1111 c-110 -34 -174 -119 -174 -231 0 -95 43 -167 129 -213 l40
-22 2225 0 2225 0 40 22 c86 46 129 118 129 213 0 95 -43 167 -129 213 l-40
22 -2210 2 c-1215 1 -2221 -2 -2235 -6z"/>
</g>
</svg>
